<svg width="73" height="16" viewBox="0 0 73 16" fill="none" xmlns="http://www.w3.org/2000/svg">
<path d="M6.23295 15.2727V10.6023H6.15909C6.04545 10.8447 5.88447 11.0852 5.67614 11.3239C5.47159 11.5587 5.20455 11.7538 4.875 11.9091C4.54924 12.0644 4.15152 12.142 3.68182 12.142C3.01894 12.142 2.41856 11.9716 1.88068 11.6307C1.34659 11.286 0.922349 10.7803 0.607955 10.1136C0.297349 9.44318 0.142045 8.62121 0.142045 7.64773C0.142045 6.64773 0.30303 5.81629 0.625 5.15341C0.94697 4.48674 1.375 3.98864 1.90909 3.65909C2.44697 3.32576 3.03598 3.15909 3.67614 3.15909C4.16477 3.15909 4.57197 3.24242 4.89773 3.40909C5.22727 3.57197 5.49242 3.77652 5.69318 4.02273C5.89773 4.26515 6.05303 4.50379 6.15909 4.73864H6.26136V3.27273H8.64773V15.2727H6.23295ZM4.44886 10.2159C4.83902 10.2159 5.16856 10.1098 5.4375 9.89773C5.71023 9.68182 5.91856 9.38068 6.0625 8.99432C6.21023 8.60795 6.28409 8.1553 6.28409 7.63636C6.28409 7.11742 6.21212 6.66667 6.06818 6.28409C5.92424 5.90151 5.71591 5.60606 5.44318 5.39773C5.17045 5.18939 4.83902 5.08523 4.44886 5.08523C4.05114 5.08523 3.71591 5.19318 3.44318 5.40909C3.17045 5.625 2.96402 5.92424 2.82386 6.30682C2.68371 6.68939 2.61364 7.13258 2.61364 7.63636C2.61364 8.14394 2.68371 8.5928 2.82386 8.98295C2.9678 9.36932 3.17424 9.67235 3.44318 9.89205C3.71591 10.108 4.05114 10.2159 4.44886 10.2159ZM46.3642 15.2727V10.6023H46.2903C46.1767 10.8447 46.0157 11.0852 45.8074 11.3239C45.6028 11.5587 45.3358 11.7538 45.0062 11.9091C44.6805 12.0644 44.2828 12.142 43.8131 12.142C43.1502 12.142 42.5498 11.9716 42.0119 11.6307C41.4778 11.286 41.0536 10.7803 40.7392 10.1136C40.4286 9.44318 40.2733 8.62121 40.2733 7.64773C40.2733 6.64773 40.4343 5.81629 40.7562 5.15341C41.0782 4.48674 41.5062 3.98864 42.0403 3.65909C42.5782 3.32576 43.1672 3.15909 43.8074 3.15909C44.296 3.15909 44.7032 3.24242 45.029 3.40909C45.3585 3.57197 45.6237 3.77652 45.8244 4.02273C46.029 4.26515 46.1843 4.50379 46.2903 4.73864H46.3926V3.27273H48.779V15.2727H46.3642ZM44.5801 10.2159C44.9703 10.2159 45.2998 10.1098 45.5687 9.89773C45.8415 9.68182 46.0498 9.38068 46.1937 8.99432C46.3415 8.60795 46.4153 8.1553 46.4153 7.63636C46.4153 7.11742 46.3434 6.66667 46.1994 6.28409C46.0555 5.90151 45.8472 5.60606 45.5744 5.39773C45.3017 5.18939 44.9703 5.08523 44.5801 5.08523C44.1824 5.08523 43.8472 5.19318 43.5744 5.40909C43.3017 5.625 43.0953 5.92424 42.9551 6.30682C42.815 6.68939 42.7449 7.13258 42.7449 7.63636C42.7449 8.14394 42.815 8.5928 42.9551 8.98295C43.0991 9.36932 43.3055 9.67235 43.5744 9.89205C43.8472 10.108 44.1824 10.2159 44.5801 10.2159Z" fill="#D53B4A"/>
<path d="M13.2295 12.1648C12.6727 12.1648 12.1765 12.0682 11.7409 11.875C11.3053 11.678 10.9606 11.3883 10.7068 11.0057C10.4568 10.6193 10.3318 10.1383 10.3318 9.5625C10.3318 9.07765 10.4208 8.67045 10.5989 8.34091C10.7769 8.01136 11.0193 7.74621 11.3261 7.54545C11.633 7.3447 11.9814 7.19318 12.3716 7.09091C12.7655 6.98864 13.1784 6.91667 13.6102 6.875C14.1178 6.82197 14.5269 6.77273 14.8375 6.72727C15.1481 6.67803 15.3735 6.60606 15.5136 6.51136C15.6538 6.41667 15.7239 6.27652 15.7239 6.09091V6.05682C15.7239 5.69697 15.6102 5.41856 15.383 5.22159C15.1595 5.02462 14.8413 4.92614 14.4284 4.92614C13.9928 4.92614 13.6462 5.02273 13.3886 5.21591C13.1311 5.4053 12.9606 5.64394 12.8773 5.93182L10.6386 5.75C10.7523 5.2197 10.9758 4.76136 11.3091 4.375C11.6424 3.98485 12.0723 3.68561 12.5989 3.47727C13.1292 3.26515 13.7428 3.15909 14.4398 3.15909C14.9246 3.15909 15.3886 3.21591 15.8318 3.32955C16.2788 3.44318 16.6746 3.61932 17.0193 3.85795C17.3678 4.09659 17.6424 4.40341 17.8432 4.77841C18.0439 5.14962 18.1443 5.5947 18.1443 6.11364V12H15.8489V10.7898H15.7807C15.6405 11.0625 15.453 11.303 15.2182 11.5114C14.9833 11.7159 14.7011 11.8769 14.3716 11.9943C14.042 12.108 13.6614 12.1648 13.2295 12.1648ZM13.9227 10.4943C14.2788 10.4943 14.5932 10.4242 14.8659 10.2841C15.1386 10.1402 15.3527 9.94697 15.508 9.70455C15.6633 9.46212 15.7409 9.1875 15.7409 8.88068V7.95455C15.6652 8.00379 15.561 8.04924 15.4284 8.09091C15.2996 8.12879 15.1538 8.16477 14.9909 8.19886C14.828 8.22917 14.6652 8.25758 14.5023 8.28409C14.3394 8.30682 14.1917 8.32765 14.0591 8.34659C13.775 8.38826 13.5269 8.45455 13.3148 8.54545C13.1027 8.63636 12.9379 8.75947 12.8205 8.91477C12.703 9.06629 12.6443 9.25568 12.6443 9.48295C12.6443 9.8125 12.7636 10.0644 13.0023 10.2386C13.2447 10.4091 13.5515 10.4943 13.9227 10.4943ZM22.5926 6.95455V12H20.1722V3.27273H22.479V4.8125H22.5812C22.7744 4.30492 23.0983 3.90341 23.5528 3.60795C24.0074 3.30871 24.5585 3.15909 25.2062 3.15909C25.8123 3.15909 26.3407 3.29167 26.7915 3.55682C27.2422 3.82197 27.5926 4.20076 27.8426 4.69318C28.0926 5.18182 28.2176 5.76515 28.2176 6.44318V12H25.7972V6.875C25.8009 6.34091 25.6646 5.92424 25.3881 5.625C25.1116 5.32197 24.7309 5.17045 24.246 5.17045C23.9203 5.17045 23.6324 5.24053 23.3824 5.38068C23.1362 5.52083 22.943 5.72538 22.8028 5.99432C22.6665 6.25947 22.5964 6.57955 22.5926 6.95455ZM33.4912 12.142C32.8283 12.142 32.2279 11.9716 31.6901 11.6307C31.156 11.286 30.7317 10.7803 30.4173 10.1136C30.1067 9.44318 29.9514 8.62121 29.9514 7.64773C29.9514 6.64773 30.1124 5.81629 30.4344 5.15341C30.7563 4.48674 31.1844 3.98864 31.7185 3.65909C32.2563 3.32576 32.8454 3.15909 33.4855 3.15909C33.9741 3.15909 34.3813 3.24242 34.7071 3.40909C35.0366 3.57197 35.3018 3.77652 35.5026 4.02273C35.7071 4.26515 35.8624 4.50379 35.9685 4.73864H36.0423V0.363636H38.4571V12H36.0707V10.6023H35.9685C35.8548 10.8447 35.6938 11.0852 35.4855 11.3239C35.281 11.5587 35.0139 11.7538 34.6844 11.9091C34.3586 12.0644 33.9609 12.142 33.4912 12.142ZM34.2582 10.2159C34.6484 10.2159 34.9779 10.1098 35.2469 9.89773C35.5196 9.68182 35.7279 9.38068 35.8719 8.99432C36.0196 8.60795 36.0935 8.1553 36.0935 7.63636C36.0935 7.11742 36.0215 6.66667 35.8776 6.28409C35.7336 5.90151 35.5253 5.60606 35.2526 5.39773C34.9798 5.18939 34.6484 5.08523 34.2582 5.08523C33.8605 5.08523 33.5253 5.19318 33.2526 5.40909C32.9798 5.625 32.7734 5.92424 32.6332 6.30682C32.4931 6.68939 32.423 7.13258 32.423 7.63636C32.423 8.14394 32.4931 8.5928 32.6332 8.98295C32.7772 9.36932 32.9836 9.67235 33.2526 9.89205C33.5253 10.108 33.8605 10.2159 34.2582 10.2159Z" fill="#F3921E"/>
<path d="M50.9176 12V0.363636H53.3778V5.16477H58.3722V0.363636H60.8267V12H58.3722V7.19318H53.3778V12H50.9176ZM63.0051 12V0.363636H67.596C68.4748 0.363636 69.2248 0.520833 69.846 0.835227C70.471 1.14583 70.9464 1.58712 71.2722 2.15909C71.6017 2.72727 71.7665 3.39583 71.7665 4.16477C71.7665 4.9375 71.5998 5.60227 71.2665 6.15909C70.9331 6.71212 70.4502 7.13636 69.8176 7.43182C69.1888 7.72727 68.4275 7.875 67.5335 7.875H64.4597V5.89773H67.1358C67.6055 5.89773 67.9956 5.83333 68.3063 5.70455C68.6169 5.57576 68.8479 5.38258 68.9994 5.125C69.1547 4.86742 69.2324 4.54735 69.2324 4.16477C69.2324 3.77841 69.1547 3.45265 68.9994 3.1875C68.8479 2.92235 68.615 2.72159 68.3006 2.58523C67.99 2.44508 67.5979 2.375 67.1244 2.375H65.4653V12H63.0051ZM69.2892 6.70455L72.1813 12H69.4653L66.6358 6.70455H69.2892Z" fill="#505CA6"/>
</svg>
